ffmpeg version 3.4.8-0ubuntu0.2 Copyright (c) 2000-2020 the FFmpeg developers
  built with gcc 7 (Ubuntu 7.5.0-3ubuntu1~18.04)
  configuration: --prefix=/usr --extra-version=0ubuntu0.2 --toolchain=hardened --libdir=/usr/lib/x86_64-linux-gnu --incdir=/usr/include/x86_64-linux-gnu --enable-gpl --disable-stripping --enable-avresample --enable-avisynth --enable-gnutls --enable-ladspa --enable-libass --enable-libbluray --enable-libbs2b --enable-libcaca --enable-libcdio --enable-libflite --enable-libfontconfig --enable-libfreetype --enable-libfribidi --enable-libgme --enable-libgsm --enable-libmp3lame --enable-libmysofa --enable-libopenjpeg --enable-libopenmpt --enable-libopus --enable-libpulse --enable-librubberband --enable-librsvg --enable-libshine --enable-libsnappy --enable-libsoxr --enable-libspeex --enable-libssh --enable-libtheora --enable-libtwolame --enable-libvorbis --enable-libvpx --enable-libwavpack --enable-libwebp --enable-libx265 --enable-libxml2 --enable-libxvid --enable-libzmq --enable-libzvbi --enable-omx --enable-openal --enable-opengl --enable-sdl2 --enable-libdc1394 --enable-libdrm --enable-libiec61883 --enable-chromaprint --enable-frei0r --enable-libopencv --enable-libx264 --enable-shared
  libavutil      55. 78.100 / 55. 78.100
  libavcodec     57.107.100 / 57.107.100
  libavformat    57. 83.100 / 57. 83.100
  libavdevice    57. 10.100 / 57. 10.100
  libavfilter     6.107.100 /  6.107.100
  libavresample   3.  7.  0 /  3.  7.  0
  libswscale      4.  8.100 /  4.  8.100
  libswresample   2.  9.100 /  2.  9.100
  libpostproc    54.  7.100 / 54.  7.100
[rawvideo @ 0x5605fc5c9a20] Estimating duration from bitrate, this may be inaccurate
Input #0, rawvideo, from '../../SVC-Encoder-20220109T061506Z-001/SVC-Encoder/Dataset/RollerCoaster/ERP_8x8/tile_yuv/Tile_30_480x240.yuv':
  Duration: 00:00:10.00, start: 0.000000, bitrate: 41472 kb/s
    Stream #0:0: Video: rawvideo (I420 / 0x30323449), yuv420p, 480x240, 41472 kb/s, 30 tbr, 30 tbn, 30 tbc
Stream mapping:
  Stream #0:0 -> #0:0 (rawvideo (native) -> h264 (libx264))
Press [q] to stop, [?] for help
[libx264 @ 0x5605fc5d6c60] using cpu capabilities: MMX2 SSE2Fast LZCNT SSSE3 SSE4.2 AVX
[libx264 @ 0x5605fc5d6c60] profile High, level 2.1
Output #0, rawvideo, to 'RollerCoaster_Tile_30_480x240_x264_QP_36.h264':
  Metadata:
    encoder         : Lavf57.83.100
    Stream #0:0: Video: h264 (libx264), yuv420p, 480x240, q=-1--1, 30 fps, 30 tbn, 30 tbc
    Metadata:
      encoder         : Lavc57.107.100 libx264
    Side data:
      cpb: bitrate max/min/avg: 0/0/0 buffer size: 0 vbv_delay: -1
frame=  199 fps=0.0 q=42.0 PSNR=Y:nan U:nan V:nan *:nan size=      38kB time=00:00:05.20 bitrate=  60.6kbits/s speed=10.3x    frame=  300 fps=0.0 q=42.0 LPSNR=Y:inf U:inf V:inf *:inf size=      68kB time=00:00:09.93 bitrate=  56.2kbits/s speed=12.4x    
video:68kB audio:0kB subtitle:0kB other streams:0kB global headers:0kB muxing overhead: 0.000000%
[libx264 @ 0x5605fc5d6c60] frame I:2     Avg QP:34.56  size:  4955  PSNR Mean Y:33.46 U:43.12 V:46.35 Avg:35.05 Global:34.83
[libx264 @ 0x5605fc5d6c60] frame P:80    Avg QP:36.11  size:   514  PSNR Mean Y:32.32 U:43.51 V:45.85 Avg:33.95 Global:33.94
[libx264 @ 0x5605fc5d6c60] frame B:218   Avg QP:41.64  size:    86  PSNR Mean Y:32.15 U:43.58 V:45.88 Avg:33.79 Global:33.77
[libx264 @ 0x5605fc5d6c60] consecutive B-frames:  1.7%  4.0%  1.0% 93.3%
[libx264 @ 0x5605fc5d6c60] mb I  I16..4: 22.1% 74.4%  3.4%
[libx264 @ 0x5605fc5d6c60] mb P  I16..4:  0.5%  0.7%  0.1%  P16..4: 34.9%  2.9%  0.4%  0.0%  0.0%    skip:60.5%
[libx264 @ 0x5605fc5d6c60] mb B  I16..4:  0.0%  0.0%  0.0%  B16..8: 12.0%  0.5%  0.0%  direct: 0.0%  skip:87.5%  L0:37.4% L1:62.4% BI: 0.2%
[libx264 @ 0x5605fc5d6c60] 8x8 transform intra:68.5% inter:82.1%
[libx264 @ 0x5605fc5d6c60] coded y,uvDC,uvAC intra: 64.2% 39.1% 3.3% inter: 1.8% 0.6% 0.0%
[libx264 @ 0x5605fc5d6c60] i16 v,h,dc,p: 15% 34% 32% 19%
[libx264 @ 0x5605fc5d6c60] i8 v,h,dc,ddl,ddr,vr,hd,vl,hu:  6% 16% 28%  8%  6%  6%  8%  5% 16%
[libx264 @ 0x5605fc5d6c60] i4 v,h,dc,ddl,ddr,vr,hd,vl,hu:  8% 12% 51%  7%  4%  4%  3%  3%  8%
[libx264 @ 0x5605fc5d6c60] i8c dc,h,v,p: 73% 18%  7%  2%
[libx264 @ 0x5605fc5d6c60] Weighted P-Frames: Y:3.8% UV:0.0%
[libx264 @ 0x5605fc5d6c60] ref P L0: 62.4% 23.0% 10.7%  3.9%  0.1%
[libx264 @ 0x5605fc5d6c60] ref B L0: 85.2% 12.9%  1.9%
[libx264 @ 0x5605fc5d6c60] ref B L1: 88.4% 11.6%
[libx264 @ 0x5605fc5d6c60] PSNR Mean Y:32.206 U:43.560 V:45.876 Avg:33.841 Global:33.822 kb/s:55.81
